<?xml version="1.0" encoding="UTF-8" standalone="no"?>
<!-- Created with Inkscape (http://www.inkscape.org/) -->

<svg
   xmlns:dc="http://purl.org/dc/elements/1.1/"
   xmlns:cc="http://creativecommons.org/ns#"
   xmlns:rdf="http://www.w3.org/1999/02/22-rdf-syntax-ns#"
   xmlns:svg="http://www.w3.org/2000/svg"
   xmlns="http://www.w3.org/2000/svg"
   xmlns:xlink="http://www.w3.org/1999/xlink"
   xmlns:sodipodi="http://sodipodi.sourceforge.net/DTD/sodipodi-0.dtd"
   xmlns:inkscape="http://www.inkscape.org/namespaces/inkscape"
   id="svg2"
   version="1.1"
   inkscape:version="0.48.4 r9939"
   width="1440"
   height="1080"
   sodipodi:docname="frack-n-box [sides and base](cut).svg">
  <metadata
     id="metadata8">
    <rdf:RDF>
      <cc:Work
         rdf:about="">
        <dc:format>image/svg+xml</dc:format>
        <dc:type
           rdf:resource="http://purl.org/dc/dcmitype/StillImage" />
        <dc:title />
      </cc:Work>
    </rdf:RDF>
  </metadata>
  <defs
     id="defs6">
    <linearGradient
       inkscape:collect="always"
       xlink:href="#linearGradient4627-5"
       id="linearGradient5411"
       gradientUnits="userSpaceOnUse"
       gradientTransform="matrix(0.03125006,0,0,1.8895873,104.06246,-301.56866)"
       spreadMethod="pad"
       x1="90"
       y1="106.14417"
       x2="270"
       y2="106.14417" />
    <linearGradient
       id="linearGradient4627-5">
      <stop
         style="stop-color:#000000;stop-opacity:1;"
         offset="0"
         id="stop4629-5" />
      <stop
         id="stop4637-26"
         offset="0.25"
         style="stop-color:#000000;stop-opacity:0.74901961;" />
      <stop
         id="stop4635-8"
         offset="0.5"
         style="stop-color:#000000;stop-opacity:0.49803922;" />
      <stop
         style="stop-color:#000000;stop-opacity:0;"
         offset="1"
         id="stop4631-9" />
    </linearGradient>
    <linearGradient
       inkscape:collect="always"
       xlink:href="#linearGradient4627-1-9"
       id="linearGradient5413"
       gradientUnits="userSpaceOnUse"
       gradientTransform="matrix(0.03125006,0,0,1.8895873,-109.68751,-99.568662)"
       spreadMethod="pad"
       x1="90"
       y1="106.14417"
       x2="270"
       y2="106.14417" />
    <linearGradient
       id="linearGradient4627-1-9">
      <stop
         style="stop-color:#000000;stop-opacity:1;"
         offset="0"
         id="stop4629-4-5" />
      <stop
         id="stop4637-2-9"
         offset="0.25"
         style="stop-color:#000000;stop-opacity:0.74901961;" />
      <stop
         id="stop4635-3-4"
         offset="0.5"
         style="stop-color:#000000;stop-opacity:0.49803922;" />
      <stop
         style="stop-color:#000000;stop-opacity:0;"
         offset="1"
         id="stop4631-2-5" />
    </linearGradient>
    <linearGradient
       inkscape:collect="always"
       xlink:href="#linearGradient4627-13-6"
       id="linearGradient4732-0-8"
       gradientUnits="userSpaceOnUse"
       gradientTransform="matrix(0.03125006,0,0,1.8895873,104.06246,-301.56866)"
       spreadMethod="pad"
       x1="90"
       y1="106.14417"
       x2="270"
       y2="106.14417" />
    <linearGradient
       id="linearGradient4627-13-6">
      <stop
         style="stop-color:#000000;stop-opacity:1;"
         offset="0"
         id="stop4629-2-0" />
      <stop
         id="stop4637-22-9"
         offset="0.25"
         style="stop-color:#000000;stop-opacity:0.74901961;" />
      <stop
         id="stop4635-7-3"
         offset="0.5"
         style="stop-color:#000000;stop-opacity:0.49803922;" />
      <stop
         style="stop-color:#000000;stop-opacity:0;"
         offset="1"
         id="stop4631-0-0" />
    </linearGradient>
    <linearGradient
       y2="106.14417"
       x2="270"
       y1="106.14417"
       x1="90"
       spreadMethod="pad"
       gradientTransform="matrix(0.03125006,0,0,1.8895873,-109.68751,-99.568662)"
       gradientUnits="userSpaceOnUse"
       id="linearGradient4943-0"
       xlink:href="#linearGradient4627-1-1-8"
       inkscape:collect="always" />
    <linearGradient
       id="linearGradient4627-1-1-8">
      <stop
         style="stop-color:#000000;stop-opacity:1;"
         offset="0"
         id="stop4629-4-3-7" />
      <stop
         id="stop4637-2-3-6"
         offset="0.25"
         style="stop-color:#000000;stop-opacity:0.74901961;" />
      <stop
         id="stop4635-3-7-3"
         offset="0.5"
         style="stop-color:#000000;stop-opacity:0.49803922;" />
      <stop
         style="stop-color:#000000;stop-opacity:0;"
         offset="1"
         id="stop4631-2-0-5" />
    </linearGradient>
  </defs>
  <sodipodi:namedview
     pagecolor="#ffffff"
     bordercolor="#cc0000"
     borderopacity="1"
     objecttolerance="10"
     gridtolerance="10"
     guidetolerance="10"
     inkscape:pageopacity="0"
     inkscape:pageshadow="2"
     inkscape:window-width="1920"
     inkscape:window-height="1003"
     id="namedview4"
     showgrid="true"
     inkscape:document-units="in"
     units="in"
     borderlayer="true"
     inkscape:showpageshadow="false"
     guidecolor="#ff0078"
     guideopacity="0.23529412"
     inkscape:zoom="2.0872745"
     inkscape:cx="899.91466"
     inkscape:cy="915.94416"
     inkscape:window-x="-9"
     inkscape:window-y="-9"
     inkscape:window-maximized="1"
     inkscape:current-layer="svg2"
     inkscape:snap-bbox="true"
     inkscape:snap-to-guides="false">
    <inkscape:grid
       type="xygrid"
       id="grid2985"
       empspacing="4"
       visible="true"
       enabled="true"
       snapvisiblegridlinesonly="true"
       units="in"
       spacingx="0.25in"
       spacingy="0.25in"
       color="#f000ff"
       opacity="0.05098039"
       empcolor="#f000ff"
       empopacity="0.1372549" />
    <sodipodi:guide
       position="90,990"
       orientation="900,0"
       id="guide2989" />
    <sodipodi:guide
       position="90,90"
       orientation="0,1620"
       id="guide2991" />
    <sodipodi:guide
       position="1710,90"
       orientation="-900,0"
       id="guide2993" />
    <sodipodi:guide
       position="1710,990"
       orientation="0,-1620"
       id="guide2995" />
  </sodipodi:namedview>
  <rect
     style="fill:#ff00ff;fill-opacity:1;stroke:none"
     id="rect3017"
     width="169.2"
     height="71.163589"
     x="1000.8"
     y="157.5" />
  <path
     style="fill:none;stroke:#000000;stroke-opacity:1"
     d="m 1012,338 0,22.5 -45,0 0,45 -22.5,0 0,45 22.5,0 0,45 -22.5,0 0,45 22.5,0 0,22.5 0,22.5 -22.5,0 0,45 22.5,0 0,45 -22.5,0 0,45 22.5,0 0,45 -22.5,0 0,45 22.5,0 0,45 -22.5,0 0,45 22.5,0 0,45 -22.5,0 0,45 22.5,0 0,22.5 45,0 0,22.5 45,0 0,-22.5 45,0 0,22.5 45,0 0,-22.5 45,0 0,22.5 45,0 0,-45 22.5,0 0,-45 -22.5,0 0,-45 22.5,0 0,-45 -22.5,0 0,-22.5 0,-22.5 22.5,0 0,-45 -22.5,0 0,-22.5 0,-22.5 22.5,0 0,-45 -22.5,0 0,-45 22.5,0 0,-45 -22.5,0 0,-22.5 0,-22.5 22.5,0 0,-45 -22.5,0 0,-22.5 0,-22.5 22.5,0 0,-45 -22.5,0 0,-45 0,-22.5 -45,0 0,22.5 -45,0 0,-22.5 -45,0 0,22.5 -45,0 0,-22.5 -45,0 z"
     id="rect3781"
     inkscape:connector-curvature="0" />
  <path
     style="fill:none;stroke:#0000ff;stroke-opacity:1"
     d="m 157,0.5 0,22.5 -22.5,0 0,45 -22.5,0 0,45 22.5,0 0,45 -22.5,0 0,45 22.5,0 0,45 -22.5,0 0,45 45,0 0,22.5 45,0 0,-22.5 45,0 0,22.5 45,0 0,-22.5 45,0 0,22.5 45,0 0,-22.5 45,0 0,22.5 45,0 0,-22.5 45,0 0,22.5 45,0 0,-22.5 45,0 0,-45 -22.5,0 0,-45 22.5,0 0,-45 -22.5,0 0,-45 22.5,0 0,-45 -22.5,0 0,-45 -22.5,0 0,-22.5 -45,0 0,22.5 -45,0 0,-22.5 -45,0 0,22.5 -45,0 -45,0 -45,0 0,-22.5 -45,0 0,22.5 -45,0 0,-22.5 -45,0 z"
     id="rect3781-1-7"
     inkscape:connector-curvature="0" />
  <path
     style="fill:none;stroke:#000000;stroke-opacity:1"
     d="m 427,360.5 0,22.5 0,45 22.5,0 0,45 -22.5,0 0,22.5 0,22.5 22.5,0 0,45 -22.5,0 0,22.5 0,22.5 22.5,0 0,45 -22.5,0 0,45 22.5,0 0,45 -22.5,0 0,22.5 0,22.5 22.5,0 0,45 -22.5,0 0,22.5 0,22.5 22.5,0 0,45 -22.5,0 0,45 22.5,0 0,45 -22.5,0 0,45 45,0 0,-22.5 45,0 0,22.5 45,0 0,-22.5 45,0 0,22.5 45,0 0,-22.5 45,0 0,22.5 45,0 0,-22.5 45,0 0,22.5 45,0 0,-22.5 45,0 0,22.5 45,0 0,-45 -22.5,0 0,-45 22.5,0 0,-45 -22.5,0 0,-45 22.5,0 0,-22.5 0,-22.5 -22.5,0 0,-45 22.5,0 0,-22.5 0,-22.5 -22.5,0 0,-45 22.5,0 0,-45 -22.5,0 0,-45 22.5,0 0,-45 -22.5,0 0,-45 22.5,0 0,-45 -22.5,0 0,-45 22.5,0 0,-45 0,-22.5 -22.5,0 -22.5,0 0,22.5 -45,0 0,-22.5 -45,0 0,22.5 -45,0 0,-22.5 -45,0 0,22.5 -45,0 0,-22.5 -45,0 0,22.5 -45,0 0,-22.5 -45,0 0,22.5 -45,0 0,-22.5 -22.5,0 -22.5,0 z"
     id="rect3011"
     inkscape:connector-curvature="0" />
  <path
     style="fill:none;stroke:#0000ff;stroke-opacity:1"
     d="m 742,0.5 0,22.5 -45,0 0,45 22.5,0 0,45 -22.5,0 0,45 22.5,0 0,45 -22.5,0 0,45 22.5,0 0,45 22.5,0 0,22.5 45,0 0,-22.5 45,0 0,22.5 45,0 0,-22.5 45,0 45,0 45,0 0,22.5 45,0 0,-22.5 45,0 0,22.5 45,0 0,-22.5 22.5,0 0,-45 22.5,0 0,-45 -22.5,0 0,-45 22.5,0 0,-45 -22.5,0 0,-45 22.5,0 0,-45 -45,0 0,-22.5 -45,0 0,22.5 -45,0 0,-22.5 -45,0 0,22.5 -45,0 0,-22.5 -45,0 0,22.5 -45,0 0,-22.5 -45,0 0,22.5 -45,0 0,-22.5 -45,0 z"
     id="rect3781-1-7-2"
     inkscape:connector-curvature="0" />
  <path
     inkscape:connector-curvature="0"
     style="fill:none;stroke:#000000;stroke-opacity:1"
     d="m 337,360.5 0,22.5 45,0 0,45 22.5,0 0,45 -22.5,0 0,45 22.5,0 0,45 -22.5,0 0,22.5 0,22.5 22.5,0 0,45 -22.5,0 0,45 22.5,0 0,45 -22.5,0 0,45 22.5,0 0,45 -22.5,0 0,45 22.5,0 0,45 -22.5,0 0,45 22.5,0 0,45 -22.5,0 0,22.5 -45,0 0,22.5 -45,0 0,-22.5 -45,0 0,22.5 -45,0 0,-22.5 -45,0 0,22.5 -45,0 0,-45 -22.5,0 0,-45 22.5,0 0,-45 -22.5,0 0,-45 22.5,0 0,-22.5 0,-22.5 -22.5,0 0,-45 22.5,0 0,-22.5 0,-22.5 -22.5,0 0,-45 22.5,0 0,-45 -22.5,0 0,-45 22.5,0 0,-22.5 0,-22.5 -22.5,0 0,-45 22.5,0 0,-22.5 0,-22.5 -22.5,0 0,-45 22.5,0 0,-45 0,-22.5 45,0 0,22.5 45,0 0,-22.5 45,0 0,22.5 45,0 0,-22.5 45,0 z"
     id="rect3781-1" />
  <rect
     style="fill:none;stroke:#000000;stroke-opacity:1"
     id="rect3015"
     width="54.27"
     height="50.400002"
     x="1001.2736"
     y="158" />
</svg>
