<?xml version="1.0" encoding="UTF-8" standalone="no"?>
<!-- Created with Inkscape (http://www.inkscape.org/) -->

<svg
   xmlns:dc="http://purl.org/dc/elements/1.1/"
   xmlns:cc="http://creativecommons.org/ns#"
   xmlns:rdf="http://www.w3.org/1999/02/22-rdf-syntax-ns#"
   xmlns:svg="http://www.w3.org/2000/svg"
   xmlns="http://www.w3.org/2000/svg"
   xmlns:sodipodi="http://sodipodi.sourceforge.net/DTD/sodipodi-0.dtd"
   xmlns:inkscape="http://www.inkscape.org/namespaces/inkscape"
   width="1440"
   height="990"
   id="svg3034"
   version="1.1"
   inkscape:version="0.48.4 r9939"
   sodipodi:docname="new box cut - lid.svg">
  <defs
     id="defs3036">
    <filter
       color-interpolation-filters="sRGB"
       inkscape:collect="always"
       id="filter4222"
       x="-0.30000001"
       width="1.6"
       y="-0.30000001"
       height="1.6">
      <feGaussianBlur
         inkscape:collect="always"
         stdDeviation="25.25"
         id="feGaussianBlur4224" />
    </filter>
    <filter
       color-interpolation-filters="sRGB"
       inkscape:collect="always"
       id="filter4222-4"
       x="-0.30000001"
       width="1.6"
       y="-0.30000001"
       height="1.6">
      <feGaussianBlur
         inkscape:collect="always"
         stdDeviation="25.25"
         id="feGaussianBlur4224-5" />
    </filter>
  </defs>
  <sodipodi:namedview
     id="base"
     pagecolor="#ffffff"
     bordercolor="#666666"
     borderopacity="1.0"
     inkscape:pageopacity="0.0"
     inkscape:pageshadow="2"
     inkscape:zoom="0.67516733"
     inkscape:cx="761.88514"
     inkscape:cy="534.00437"
     inkscape:document-units="in"
     inkscape:current-layer="layer1"
     showgrid="true"
     inkscape:snap-bbox="true"
     inkscape:window-width="1680"
     inkscape:window-height="988"
     inkscape:window-x="-8"
     inkscape:window-y="-8"
     inkscape:window-maximized="1"
     showguides="true"
     inkscape:guide-bbox="true"
     inkscape:snap-bbox-midpoints="false"
     units="in"
     inkscape:snap-global="false"
     inkscape:snap-bbox-edge-midpoints="false"
     inkscape:snap-object-midpoints="false">
    <inkscape:grid
       type="xygrid"
       id="grid3042"
       empspacing="16"
       visible="true"
       enabled="true"
       snapvisiblegridlinesonly="true"
       units="in"
       spacingx="0.0625in"
       spacingy="0.0625in" />
  </sodipodi:namedview>
  <metadata
     id="metadata3039">
    <rdf:RDF>
      <cc:Work
         rdf:about="">
        <dc:format>image/svg+xml</dc:format>
        <dc:type
           rdf:resource="http://purl.org/dc/dcmitype/StillImage" />
        <dc:title />
      </cc:Work>
    </rdf:RDF>
  </metadata>
  <g
     inkscape:label="Layer 1"
     inkscape:groupmode="layer"
     id="layer1"
     transform="translate(0,-62.362168)">
    <path
       style="fill:none;fill-opacity:1;stroke:#000000;stroke-opacity:1"
       d="M 95.625 84.375 L 95.625 106.875 L 50.625 106.875 L 50.625 129.375 L 28.125 129.375 L 28.125 174.375 L 50.625 174.375 L 50.625 219.375 L 28.125 219.375 L 28.125 264.375 L 50.625 264.375 L 50.625 309.375 L 28.125 309.375 L 28.125 354.375 L 50.625 354.375 L 50.625 399.375 L 28.125 399.375 L 28.125 444.375 L 50.625 444.375 L 50.625 489.375 L 28.125 489.375 L 28.125 534.375 L 50.625 534.375 L 50.625 579.375 L 28.125 579.375 L 28.125 624.375 L 50.625 624.375 L 50.625 646.875 L 95.625 646.875 L 95.625 669.375 L 140.625 669.375 L 140.625 646.875 L 185.625 646.875 L 185.625 669.375 L 230.625 669.375 L 230.625 646.875 L 275.625 646.875 L 275.625 669.375 L 320.625 669.375 L 320.625 646.875 L 365.625 646.875 L 365.625 669.375 L 410.625 669.375 L 410.625 646.875 L 455.625 646.875 L 455.625 624.375 L 478.125 624.375 L 478.125 579.375 L 455.625 579.375 L 455.625 534.375 L 478.125 534.375 L 478.125 489.375 L 455.625 489.375 L 455.625 444.375 L 478.125 444.375 L 478.125 399.375 L 455.625 399.375 L 455.625 354.375 L 478.125 354.375 L 478.125 309.375 L 455.625 309.375 L 455.625 264.375 L 478.125 264.375 L 478.125 219.375 L 455.625 219.375 L 455.625 174.375 L 478.125 174.375 L 478.125 129.375 L 455.625 129.375 L 455.625 106.875 L 410.625 106.875 L 410.625 84.375 L 365.625 84.375 L 365.625 106.875 L 320.625 106.875 L 320.625 84.375 L 286.875 84.375 L 275.625 84.375 L 275.625 106.875 L 230.625 106.875 L 230.625 84.375 L 213.75 84.375 L 185.625 84.375 L 185.625 106.875 L 140.625 106.875 L 140.625 84.375 L 95.625 84.375 z "
       transform="translate(0,62.362168)"
       id="rect5937-7" />
    <path
       inkscape:connector-curvature="0"
       style="fill:none;stroke:#000000;stroke-opacity:1"
       d="m 1290.7712,1041.3308 0,-22.5 -22.5,0 0,-22.5 22.5,0 0,-22.5 -22.5,0 0,-22.5 22.5,0 0,-22.5 -22.5,0 0,-22.5 22.5,0 0,-22.5 -22.5,0 0,-22.5 22.5,0 0,-22.5 -22.5,0 0,-22.50005 22.5,0 0,-22.5 -45,0 0,22.5 -45,0 0,-22.5 -45,0 0,22.5 -45,0 0,-22.5 -45,0 0,22.5 -45,0 0,-22.5 -45.00003,0 0,22.5 -45,0 0,-22.5 -45.00002,0 0,22.5 -45,0 0,-22.5 -45,0 0,22.5 -45,0 0,-22.5 -45,0 0,22.5 22.5,0 0,22.50005 -22.5,0 0,22.5 22.5,0 0,22.5 -22.5,0 0,22.5 22.5,0 0,22.5 -22.5,0 0,22.5 22.5,0 0,22.5 -22.5,0 0,22.5 22.5,0 0,22.5 -22.5,0 0,22.5 45,0 0,-22.5 45,0 0,22.5 45,0 0,-22.5 45,0 0,22.5 45.00002,0 0,-22.5 45,0 0,22.5 45.00003,0 0,-22.5 45,0 0,22.5 45,0 0,-22.5 45,0 0,22.5 45,0 0,-22.5 45,0 0,22.5 45,0 z"
       id="rect4660" />
    <path
       inkscape:connector-curvature="0"
       style="fill:none;stroke:#000000;stroke-opacity:1"
       d="m 631.67515,1038.3686 0,-22.5 -22.5,0 0,-22.50004 22.5,0 0,-22.5 -22.5,0 0,-22.5 22.5,0 0,-22.5 -22.5,0 0,-22.5 22.5,0 0,-22.5 -22.5,0 0,-22.50004 22.5,0 0,-22.5 -22.5,0 0,-22.50005 22.5,0 0,-22.5 -45,0 0,22.5 -45,0 0,-22.5 -45,0 0,22.5 -45,0 0,-22.5 -45,0 0,22.5 -45,0 0,-22.5 -45,0 0,22.5 -44.99996,0 0,-22.5 -45,0 0,22.5 -44.99997,0 0,-22.5 -45,0 0,22.5 -44.999999,0 0,-22.5 -45,0 0,22.5 22.5,0 0,22.50005 -22.5,0 0,22.5 22.5,0 0,22.50004 -22.5,0 0,22.5 22.5,0 0,22.5 -22.5,0 0,22.5 22.5,0 0,22.5 -22.5,0 0,22.5 22.5,0 0,22.50004 -22.5,0 0,22.5 45,0 0,-22.5 44.999999,0 0,22.5 45,0 0,-22.5 44.99997,0 0,22.5 45,0 0,-22.5 44.99996,0 0,22.5 45,0 0,-22.5 45,0 0,22.5 45,0 0,-22.5 45,0 0,22.5 45,0 0,-22.5 45,0 0,22.5 45,0 z"
       id="rect4660-7" />
    <path
       inkscape:connector-curvature="0"
       style="fill:none;stroke:#000000;stroke-opacity:1"
       d="m 1406.9292,196.12416 -22.5,0 0,-22.5 -45,0 0,-22.49996 -45,0 0,22.49996 -45,0 0,-22.49996 -45,0 0,-45 -45,0 0,45 -45,0 0,22.49996 -45,0 0,-22.49996 -45,0 0,22.49996 -45,0 0,22.5 -22.5,0 0,45 22.5,0 0,45 -22.5,0 0,45 22.5,0 0,45 -22.5,0 0,45 22.5,0 0,45 -22.5,0 0,45 22.5,0 0,45 -22.5,0 0,45 22.5,0 0,45 -22.5,0 0,45 22.5,0 0,22.5 45,0 0,22.5 45,0 0,-22.5 45,0 0,22.5 45,0 0,45 45,0 0,-45 45,0 0,-22.5 45,0 0,22.5 45,0 0,-22.5 45,0 0,-22.5 22.5,0 0,-45 -22.5,0 0,-45 22.5,0 0,-45 -22.5,0 0,-45 22.5,0 0,-45 -22.5,0 0,-45 22.5,0 0,-45 -22.5,0 0,-45 22.5,0 0,-45 -22.5,0 0,-45 22.5,0 0,-45 z"
       id="rect5937-7-6" />
    <path
       inkscape:connector-curvature="0"
       style="fill:none;stroke:#000000;stroke-opacity:1"
       d="m 558.4712,149.89994 0,22.5 -45,0 0,22.5 -22.5,0 0,45 22.5,0 0,45 -22.5,0 0,45 22.5,0 0,45 -22.5,0 0,45 22.5,0 0,45 -22.5,0 0,45 22.5,0 0,45 -22.5,0 0,45 22.5,0 0,45 -22.5,0 0,45 22.5,0 0,22.5 45,0 0,22.5 45,0 0,-22.5 45,0 0,22.5 45,0 0,-22.5 45,0 0,22.5 45,0 0,-22.5 45,0 0,22.5 45,0 0,-22.5 45,0 0,-22.5 22.5,0 0,-45 -22.5,0 0,-45 22.5,0 0,-45 -22.5,0 0,-45 22.5,0 0,-45 -22.5,0 0,-45 22.5,0 0,-45 -22.5,0 0,-45 22.5,0 0,-45 -22.5,0 0,-45 22.5,0 0,-45 -22.5,0 0,-22.5 -45,0 0,-22.5 -45,0 0,22.5 -45,0 0,-22.5 -33.75,0 -11.25,0 0,22.5 -45,0 0,-22.5 -16.875,0 -28.125,0 0,22.5 -45,0 0,-22.5 -45,0 z"
       id="rect5937-7-4" />
  </g>
</svg>
