<?xml version="1.0" encoding="UTF-8" standalone="no"?>
<!-- Created with Inkscape (http://www.inkscape.org/) -->

<svg
   xmlns:dc="http://purl.org/dc/elements/1.1/"
   xmlns:cc="http://creativecommons.org/ns#"
   xmlns:rdf="http://www.w3.org/1999/02/22-rdf-syntax-ns#"
   xmlns:svg="http://www.w3.org/2000/svg"
   xmlns="http://www.w3.org/2000/svg"
   xmlns:sodipodi="http://sodipodi.sourceforge.net/DTD/sodipodi-0.dtd"
   xmlns:inkscape="http://www.inkscape.org/namespaces/inkscape"
   width="1440"
   height="990"
   id="svg3034"
   version="1.1"
   inkscape:version="0.48.4 r9939"
   sodipodi:docname="new box cut.svg">
  <defs
     id="defs3036" />
  <sodipodi:namedview
     id="base"
     pagecolor="#ffffff"
     bordercolor="#666666"
     borderopacity="1.0"
     inkscape:pageopacity="0.0"
     inkscape:pageshadow="2"
     inkscape:zoom="0.60132025"
     inkscape:cx="546.49297"
     inkscape:cy="589.50783"
     inkscape:document-units="in"
     inkscape:current-layer="layer1"
     showgrid="true"
     inkscape:snap-bbox="true"
     inkscape:window-width="1920"
     inkscape:window-height="1003"
     inkscape:window-x="-9"
     inkscape:window-y="-9"
     inkscape:window-maximized="1"
     showguides="true"
     inkscape:guide-bbox="true"
     inkscape:snap-bbox-midpoints="false"
     units="in"
     inkscape:snap-global="true">
    <inkscape:grid
       type="xygrid"
       id="grid3042"
       empspacing="16"
       visible="true"
       enabled="true"
       snapvisiblegridlinesonly="true"
       units="in"
       spacingx="0.0625in"
       spacingy="0.0625in" />
  </sodipodi:namedview>
  <metadata
     id="metadata3039">
    <rdf:RDF>
      <cc:Work
         rdf:about="">
        <dc:format>image/svg+xml</dc:format>
        <dc:type
           rdf:resource="http://purl.org/dc/dcmitype/StillImage" />
        <dc:title />
      </cc:Work>
    </rdf:RDF>
  </metadata>
  <g
     inkscape:label="Layer 1"
     inkscape:groupmode="layer"
     id="layer1"
     transform="translate(0,-62.362168)">
    <path
       style="fill:none;stroke:#000000;stroke-opacity:1"
       d="m 22,760.36218 22.5,0 0,22.5 22.5,0 0,-22.5 22.5,0 0,22.5 22.5,0 0,-22.5 22.5,0 0,22.5 22.5,0 0,-22.5 22.5,0 0,22.5 22.5,0 0,-22.5 22.5,0 0,22.5 22.5,0 0,-22.5 22.5,0 0,-45 -22.5,0 0,-45 22.5,0 0,-45 -22.5,0 0,-45 22.5,0 0,-45 -22.5,0 0,-45 22.5,0 0,-45 -22.5,0 0,-45 22.5,0 0,-45 -22.5,0 0,-22.5 -22.5,0 0,22.5 -22.5,0 0,-22.5 -22.5,0 0,22.5 -22.5,0 0,-22.5 -22.5,0 0,22.5 -22.5,0 0,-22.5 -22.5,0 0,22.5 -22.5,0 0,-22.5 -22.5,0 0,22.5 -22.5,0 0,45 22.5,0 0,45 -22.5,0 0,45 22.5,0 0,33.75 0,11.25 0,45 0,11.25 0,33.75 -22.5,0 0,45 22.5,0 0,45 -22.5,0 0,45 z"
       id="rect5571-8"
       inkscape:connector-curvature="0" />
    <path
       inkscape:connector-curvature="0"
       style="fill:none;stroke:#000000;stroke-opacity:1"
       d="m 371.74146,325.78945 0,22.5 -22.5,0 0,45 -22.5,0 0,45 22.5,0 0,45 -22.5,0 0,45 -45,0 0,45 45,0 0,45 22.5,0 0,45 -22.5,0 0,45 22.5,0 0,45 22.5,0 0,22.5 45,0 0,-22.5 45,0 0,22.5 45,0 0,-22.5 45,0 0,22.5 45,0 0,-22.5 45,0 0,22.5 45,0 0,-22.5 45,0 0,22.5 45,0 0,-22.5 45,0 0,22.5 45,0 0,-22.5 22.5,0 0,-45 22.5,0 0,-45 -22.5,0 0,-45 22.5,0 0,-45 45,0 0,-45 -45,0 0,-45 -22.5,0 0,-45 22.5,0 0,-45 -22.5,0 0,-45 -22.5,0 0,-22.5 -45,0 0,22.5 -45,0 0,-22.5 -45,0 0,22.5 -45,0 0,-22.5 -45,0 0,22.5 -45,0 0,-22.5 -45,0 0,22.5 -45,0 0,-22.5 -45,0 0,22.5 -45,0 0,-22.5 -45,0 z"
       id="rect5937-7" />
    <g
       id="g3792">
      <path
         inkscape:connector-curvature="0"
         id="rect5571"
         d="m 653,782.86217 0,22.5 -22.5,0 0,22.5 22.5,0 0,22.5 -22.5,0 0,22.5 22.5,0 0,22.5 -22.5,0 0,22.5 22.5,0 0,22.5 -22.5,0 0,22.5 22.5,0 0,22.5 -22.5,0 0,22.50003 22.5,0 0,22.5 45,0 0,-22.5 45,0 0,22.5 45,0 0,-22.5 45,0 0,22.5 45,0 0,-22.5 45,0 0,22.5 45,0 0,-22.5 45,0 0,22.5 45,0 0,-22.5 22.5,0 0,-22.50003 -22.5,0 0,-22.5 22.5,0 0,-22.5 -22.5,0 0,-22.5 22.5,0 0,-22.5 -22.5,0 0,-22.5 22.5,0 0,-22.5 -22.5,0 0,-22.5 22.5,0 0,-22.5 -22.5,0 0,-22.5 -45,0 0,22.5 -45,0 0,-22.5 -45,0 0,22.5 -33.75,0 -11.25,0 -45,0 -11.25,0 -33.75,0 0,-22.5 -45,0 0,22.5 -45,0 0,-22.5 -45,0 z"
         style="fill:none;stroke:#000000;stroke-opacity:1" />
      <rect
         y="900.48718"
         x="753.75"
         height="67.5"
         width="78.75"
         id="rect6941"
         style="fill:none;fill-opacity:1;stroke:#000000;stroke-opacity:1" />
    </g>
    <g
       id="g3781">
      <path
         inkscape:connector-curvature="0"
         style="fill:none;stroke:#000000;stroke-opacity:1"
         d="m 17.375,794.11217 0,22.5 22.5,0 0,22.5 -22.5,0 0,22.5 22.5,0 0,22.5 -22.5,0 0,22.5 22.5,0 0,22.5 -22.5,0 0,22.5 22.5,0 0,22.5 -22.5,0 0,22.5 22.5,0 0,22.50003 -22.5,0 0,22.5 45,0 0,-22.5 45,0 0,22.5 45,0 0,-22.5 45,0 0,22.5 45,0 0,-22.5 45,0 0,22.5 45,0 0,-22.5 45,0 0,22.5 45,0 0,-22.5 45,0 0,22.5 45,0 0,-22.5 45,0 0,22.5 45,0 0,-22.5 -22.5,0 0,-22.50003 22.5,0 0,-22.5 -22.5,0 0,-22.5 22.5,0 0,-22.5 -22.5,0 0,-22.5 22.5,0 0,-22.5 -22.5,0 0,-22.5 22.5,0 0,-22.5 -22.5,0 0,-22.5 22.5,0 0,-22.5 -45,0 0,22.5 -45,0 0,-22.5 -45,0 0,22.5 -45,0 0,-22.5 -45,0 0,22.5 -45,0 0,-22.5 -45,0 0,22.5 -45,0 0,-22.5 -45,0 0,22.5 -45,0 0,-22.5 -45,0 0,22.5 -45,0 0,-22.5 -45,0 z"
         id="rect4660" />
      <rect
         y="934.23718"
         x="365.625"
         height="50.625"
         width="56.25"
         id="rect6941-5"
         style="fill:none;fill-opacity:1;stroke:#000000;stroke-opacity:1" />
    </g>
    <path
       style="fill:none;stroke:#000000;stroke-opacity:1"
       d="m 1215.5,349.73717 -22.5,0 0,-22.5 -22.5,0 0,22.5 -22.5,0 0,-22.5 -22.5,0 0,22.5 -22.5,0 0,-22.5 -22.5,0 0,22.5 -22.5,0 0,-22.5 -22.5,0 0,22.5 -22.5,0 0,-22.5 -22.49998,0 0,22.5 -22.5,0 0,45 22.5,0 0,45 -22.5,0 0,45 22.5,0 0,45 -22.5,0 0,45 22.5,0 0,45 -22.5,0 0,45 22.5,0 0,45 -22.5,0 0,45 22.5,0 0,22.5 22.49998,0 0,-22.5 22.5,0 0,22.5 22.5,0 0,-22.5 22.5,0 0,22.5 22.5,0 0,-22.5 22.5,0 0,22.5 22.5,0 0,-22.5 22.5,0 0,22.5 22.5,0 0,-22.5 22.5,0 0,-45 -22.5,0 0,-45 22.5,0 0,-45 -22.5,0 0,-33.75 0,-11.25 0,-45 0,-11.25 0,-33.75 22.5,0 0,-45 -22.5,0 0,-45 22.5,0 0,-45 z"
       id="rect5571-2"
       inkscape:connector-curvature="0" />
    <rect
       style="fill:none;fill-opacity:1;stroke:#000000;stroke-opacity:1"
       id="rect6941-7"
       width="78.75"
       height="67.5"
       x="450.48718"
       y="-1096.875"
       transform="matrix(0,1,-1,0,0,0)" />
    <g
       id="g3777">
      <path
         inkscape:connector-curvature="0"
         style="fill:none;stroke:#000000;stroke-opacity:1"
         d="m 518,74.11217 0,22.5 22.5,0 0,22.5 -22.5,0 0,22.5 22.5,0 0,22.5 -22.5,0 0,22.5 22.5,0 0,22.5 -22.5,0 0,22.5 22.5,0 0,22.5 -22.5,0 0,22.5 22.5,0 0,22.5 -22.5,0 0,22.5 45,0 0,-22.5 45,0 0,22.5 45,0 0,-22.5 45,0 0,22.5 45,0 0,-22.5 45,0 0,22.5 45,0 0,-22.5 45,0 0,22.5 45,0 0,-22.5 45,0 0,22.5 45,0 0,-22.5 45,0 0,22.5 45,0 0,-22.5 -22.5,0 0,-22.5 22.5,0 0,-22.5 -22.5,0 0,-22.5 22.5,0 0,-22.5 -22.5,0 0,-22.5 22.5,0 0,-22.5 -22.5,0 0,-22.5 22.5,0 0,-22.5 -22.5,0 0,-22.5 22.5,0 0,-22.5 -45,0 0,22.5 -45,0 0,-22.5 -45,0 0,22.5 -45,0 0,-22.5 -45,0 0,22.5 -45,0 0,-22.5 -45,0 0,22.5 -45,0 0,-22.5 -45,0 0,22.5 -45,0 0,-22.5 -45,0 0,22.5 -45,0 0,-22.5 -45,0 z"
         id="rect4660-6" />
      <rect
         y="214.73717"
         x="866.75"
         height="50.625"
         width="56.25"
         id="rect6941-5-7"
         style="fill:none;stroke:#000000;stroke-opacity:1" />
    </g>
    <path
       style="fill:none;stroke:#000000;stroke-opacity:1"
       d="m 47.990878,73.649709 0,22.5 -22.5,0 0,22.500001 22.5,0 0,22.5 -22.5,0 0,22.5 22.5,0 0,22.5 -22.5,0 0,22.5 22.5,0 0,22.5 -22.5,0 0,22.5 22.5,0 0,22.5 -22.5,0 0,22.5 22.5,0 0,22.5 45,0 0,-22.5 45.000002,0 0,22.5 45,0 0,-22.5 45,0 0,22.5 45,0 0,-22.5 45,0 0,22.5 45,0 0,-22.5 45,0 0,22.5 45,0 0,-22.5 22.5,0 0,-22.5 -22.5,0 0,-22.5 22.5,0 0,-22.5 -22.5,0 0,-22.5 22.5,0 0,-22.5 -22.5,0 0,-22.5 22.5,0 0,-22.5 -22.5,0 0,-22.5 22.5,0 0,-22.500001 -22.5,0 0,-22.5 -45,0 0,22.5 -45,0 0,-22.5 -45,0 0,22.5 -33.75,0 -11.25,0 -45,0 -11.25,0 -33.75,0 0,-22.5 -45,0 0,22.5 -45.000002,0 0,-22.5 -45,0 z"
       id="rect5571-8-7"
       inkscape:connector-curvature="0" />
  </g>
</svg>
