<?xml version="1.0" encoding="UTF-8" standalone="no"?>
<!-- Created with Inkscape (http://www.inkscape.org/) -->

<svg
   xmlns:dc="http://purl.org/dc/elements/1.1/"
   xmlns:cc="http://creativecommons.org/ns#"
   xmlns:rdf="http://www.w3.org/1999/02/22-rdf-syntax-ns#"
   xmlns:svg="http://www.w3.org/2000/svg"
   xmlns="http://www.w3.org/2000/svg"
   xmlns:sodipodi="http://sodipodi.sourceforge.net/DTD/sodipodi-0.dtd"
   xmlns:inkscape="http://www.inkscape.org/namespaces/inkscape"
   width="1052.3622"
   height="744.09448"
   id="svg3034"
   version="1.1"
   inkscape:version="0.48.4 r9939"
   sodipodi:docname="New document 2">
  <defs
     id="defs3036" />
  <sodipodi:namedview
     id="base"
     pagecolor="#ffffff"
     bordercolor="#666666"
     borderopacity="1.0"
     inkscape:pageopacity="0.0"
     inkscape:pageshadow="2"
     inkscape:zoom="1.5147649"
     inkscape:cx="419.07832"
     inkscape:cy="516.4791"
     inkscape:document-units="in"
     inkscape:current-layer="layer1"
     showgrid="true"
     inkscape:snap-bbox="true"
     inkscape:window-width="1920"
     inkscape:window-height="1003"
     inkscape:window-x="-9"
     inkscape:window-y="-9"
     inkscape:window-maximized="1">
    <inkscape:grid
       type="xygrid"
       id="grid3042"
       empspacing="16"
       visible="true"
       enabled="true"
       snapvisiblegridlinesonly="true"
       units="in"
       spacingx="0.0625in"
       spacingy="0.0625in" />
  </sodipodi:namedview>
  <metadata
     id="metadata3039">
    <rdf:RDF>
      <cc:Work
         rdf:about="">
        <dc:format>image/svg+xml</dc:format>
        <dc:type
           rdf:resource="http://purl.org/dc/dcmitype/StillImage" />
        <dc:title></dc:title>
      </cc:Work>
    </rdf:RDF>
  </metadata>
  <g
     inkscape:label="Layer 1"
     inkscape:groupmode="layer"
     id="layer1"
     transform="translate(0,-308.2677)">
    <path
       style="fill:none;stroke:#000000;stroke-width:0.89842594;stroke-miterlimit:4;stroke-opacity:1;stroke-dasharray:none"
       d="M 45.4375 317.03125 L 45.4375 339.28125 L 67.0625 339.28125 L 67.0625 361.53125 L 45.4375 361.53125 L 45.4375 384.28125 L 67.0625 384.28125 L 67.0625 406.53125 L 45.4375 406.53125 L 45.4375 429.28125 L 67.0625 429.28125 L 67.0625 451.53125 L 45.4375 451.53125 L 45.4375 474.28125 L 67.0625 474.28125 L 67.0625 496.53125 L 45.4375 496.53125 L 45.4375 519.28125 L 67.0625 519.28125 L 67.0625 541.53125 L 45.4375 541.53125 L 45.4375 563.65625 L 652.0625 563.65625 L 652.0625 541.53125 L 630.4375 541.53125 L 630.4375 519.28125 L 652.0625 519.28125 L 652.0625 496.53125 L 630.4375 496.53125 L 630.4375 474.28125 L 652.0625 474.28125 L 652.0625 451.53125 L 630.4375 451.53125 L 630.4375 429.28125 L 652.0625 429.28125 L 652.0625 406.53125 L 630.4375 406.53125 L 630.4375 384.28125 L 652.0625 384.28125 L 652.0625 361.53125 L 630.4375 361.53125 L 630.4375 339.28125 L 652.0625 339.28125 L 652.0625 317.03125 L 45.4375 317.03125 z "
       id="rect4354"
       transform="translate(0,308.2677)" />
    <path
       inkscape:connector-curvature="0"
       style="fill:none;stroke:#000000;stroke-width:0.90179855;stroke-miterlimit:4;stroke-opacity:1;stroke-dasharray:none"
       d="m 652.0759,625.31308 0,22.25 -21.625,0 0,22.25 21.625,0 0,22.75 -21.625,0 0,22.25 21.625,0 0,22.75 -21.625,0 0,22.25 21.625,0 0,22.75 -21.625,0 0,22.25 21.625,0 0,22.75 -21.625,0 0,22.25 21.625,0 0,22.125 315.875,0 0,-22.125 21.625,0 0,-22.25 -21.625,0 0,-22.75 21.625,0 0,-22.25 -21.625,0 0,-22.75 21.625,0 0,-22.25 -21.625,0 0,-22.75 21.625,0 0,-22.25 -21.625,0 0,-22.75 21.625,0 0,-22.25 -21.625,0 0,-22.25 -315.875,0 z"
       id="rect4376" />
    <rect
       style="fill:none;stroke:#000000;stroke-width:0.31485653;stroke-miterlimit:4;stroke-opacity:1;stroke-dasharray:none"
       id="rect4136-5-3-6-2-4-2-6-7-9-1-9-3-1-7-99"
       width="44.685143"
       height="22.185143"
       x="670.01959"
       y="-67.342575"
       transform="matrix(0,1,-1,0,0,0)" />
    <path
       style="fill:none;stroke:#000000;stroke-width:0.88578504;stroke-miterlimit:4;stroke-opacity:1;stroke-dasharray:none"
       d="M 0.4375 47.03125 L 0.4375 272.03125 L 44.5625 272.03125 L 44.5625 293.65625 L 90.4375 293.65625 L 90.4375 272.03125 L 134.5625 272.03125 L 134.5625 293.65625 L 180.4375 293.65625 L 180.4375 272.03125 L 224.5625 272.03125 L 224.5625 293.65625 L 270.4375 293.65625 L 270.4375 272.03125 L 314.5625 272.03125 L 314.5625 293.65625 L 360.4375 293.65625 L 360.4375 272.03125 L 404.5625 272.03125 L 404.5625 293.65625 L 584.5625 293.65625 L 584.5625 47.03125 L 0.4375 47.03125 z "
       transform="translate(0,308.2677)"
       id="rect4592" />
    <rect
       style="fill:none;stroke:#000000;stroke-width:0.88274312;stroke-miterlimit:4;stroke-opacity:1;stroke-dasharray:none"
       id="rect4136-5-3-6-2-4-2-6-7-9-1-9-3-1-7-6"
       width="44.11726"
       height="21.617256"
       x="450.44138"
       y="580.30353" />
    <rect
       style="fill:none;stroke:#000000;stroke-width:0.88274312;stroke-miterlimit:4;stroke-opacity:1;stroke-dasharray:none"
       id="rect4136-5-3-6-2-4-2-6-7-9-1-9-3-1-7-9"
       width="44.11726"
       height="21.617256"
       x="540.44135"
       y="580.30353" />
  </g>
</svg>
