<?xml version="1.0" encoding="UTF-8" standalone="no"?>
<!-- Created with Inkscape (http://www.inkscape.org/) -->

<svg
   xmlns:dc="http://purl.org/dc/elements/1.1/"
   xmlns:cc="http://creativecommons.org/ns#"
   xmlns:rdf="http://www.w3.org/1999/02/22-rdf-syntax-ns#"
   xmlns:svg="http://www.w3.org/2000/svg"
   xmlns="http://www.w3.org/2000/svg"
   xmlns:sodipodi="http://sodipodi.sourceforge.net/DTD/sodipodi-0.dtd"
   xmlns:inkscape="http://www.inkscape.org/namespaces/inkscape"
   width="1052.3622"
   height="744.09448"
   id="svg3034"
   version="1.1"
   inkscape:version="0.48.4 r9939"
   sodipodi:docname="new box layout.svg">
  <defs
     id="defs3036" />
  <sodipodi:namedview
     id="base"
     pagecolor="#ffffff"
     bordercolor="#666666"
     borderopacity="1.0"
     inkscape:pageopacity="0.0"
     inkscape:pageshadow="2"
     inkscape:zoom="0.60132025"
     inkscape:cx="752.21971"
     inkscape:cy="506.04356"
     inkscape:document-units="in"
     inkscape:current-layer="layer1"
     showgrid="true"
     inkscape:snap-bbox="true"
     inkscape:window-width="1920"
     inkscape:window-height="1003"
     inkscape:window-x="-9"
     inkscape:window-y="-9"
     inkscape:window-maximized="1"
     showguides="true"
     inkscape:guide-bbox="true"
     inkscape:snap-bbox-midpoints="false">
    <inkscape:grid
       type="xygrid"
       id="grid3042"
       empspacing="16"
       visible="true"
       enabled="true"
       snapvisiblegridlinesonly="true"
       units="in"
       spacingx="0.0625in"
       spacingy="0.0625in" />
  </sodipodi:namedview>
  <metadata
     id="metadata3039">
    <rdf:RDF>
      <cc:Work
         rdf:about="">
        <dc:format>image/svg+xml</dc:format>
        <dc:type
           rdf:resource="http://purl.org/dc/dcmitype/StillImage" />
        <dc:title />
      </cc:Work>
    </rdf:RDF>
  </metadata>
  <g
     inkscape:label="Layer 1"
     inkscape:groupmode="layer"
     id="layer1"
     transform="translate(0,-308.2677)">
    <path
       style="fill:#000000;fill-opacity:1;stroke:none"
       d="M 180 316.59375 L 180 339.09375 L 202.5 339.09375 L 202.5 361.59375 L 180 361.59375 L 180 384.09375 L 202.5 384.09375 L 202.5 406.59375 L 180 406.59375 L 180 429.09375 L 202.5 429.09375 L 202.5 451.59375 L 180 451.59375 L 180 474.09375 L 202.5 474.09375 L 202.5 496.59375 L 180 496.59375 L 180 519.09375 L 202.5 519.09375 L 202.5 541.59375 L 180 541.59375 L 180 564.09375 L 225 564.09375 L 225 541.59375 L 270 541.59375 L 270 564.09375 L 315 564.09375 L 315 541.59375 L 360 541.59375 L 360 564.09375 L 405 564.09375 L 405 541.59375 L 450 541.59375 L 450 564.09375 L 495 564.09375 L 495 541.59375 L 540 541.59375 L 540 564.09375 L 585 564.09375 L 585 541.59375 L 630 541.59375 L 630 564.09375 L 675 564.09375 L 675 541.59375 L 720 541.59375 L 720 564.09375 L 765 564.09375 L 765 541.59375 L 742.5 541.59375 L 742.5 519.09375 L 765 519.09375 L 765 496.59375 L 742.5 496.59375 L 742.5 474.09375 L 765 474.09375 L 765 451.59375 L 742.5 451.59375 L 742.5 429.09375 L 765 429.09375 L 765 406.59375 L 742.5 406.59375 L 742.5 384.09375 L 765 384.09375 L 765 361.59375 L 742.5 361.59375 L 742.5 339.09375 L 765 339.09375 L 765 316.59375 L 720 316.59375 L 720 339.09375 L 675 339.09375 L 675 316.59375 L 630 316.59375 L 630 339.09375 L 585 339.09375 L 585 316.59375 L 540 316.59375 L 540 339.09375 L 495 339.09375 L 495 316.59375 L 450 316.59375 L 450 339.09375 L 405 339.09375 L 405 316.59375 L 360 316.59375 L 360 339.09375 L 315 339.09375 L 315 316.59375 L 270 316.59375 L 270 339.09375 L 225 339.09375 L 225 316.59375 L 180 316.59375 z "
       transform="translate(0,308.2677)"
       id="rect4660" />
    <path
       style="fill:#00ff00;fill-opacity:1;fill-rule:nonzero;stroke:none"
       d="m 765,624.86218 0,22.5 -22.5,0 0,22.5 22.5,0 0,22.5 -22.5,0 0,22.5 22.5,0 0,22.5 -22.5,0 0,22.5 22.5,0 0,22.5 -22.5,0 0,22.5 22.5,0 0,22.5 -22.5,0 0,22.5 22.5,0 0,22.5 45,0 0,-22.5 45,0 0,22.5 45,0 0,-22.5 45,0 0,22.5 45,0 0,-22.5 45,0 0,22.5 45,0 0,-22.5 45,0 0,22.5 45,0 0,-22.5 22.5,0 0,-22.5 -22.5,0 0,-22.5 22.5,0 0,-22.5 -22.5,0 0,-22.5 22.5,0 0,-22.5 -22.5,0 0,-22.5 22.5,0 0,-22.5 -22.5,0 0,-22.5 22.5,0 0,-22.5 -22.5,0 0,-22.5 -45,0 0,22.5 -45,0 0,-22.5 -45,0 0,22.5 -33.75,0 -11.25,0 -45,0 -11.25,0 -33.75,0 0,-22.5 -45,0 0,22.5 -45,0 0,-22.5 -45,0 z"
       id="rect5571"
       inkscape:connector-curvature="0" />
    <path
       style="fill:#00ff00;fill-opacity:1;fill-rule:nonzero;stroke:none"
       d="M -225 316.59375 L -225 339.09375 L -247.5 339.09375 L -247.5 361.59375 L -225 361.59375 L -225 384.09375 L -247.5 384.09375 L -247.5 406.59375 L -225 406.59375 L -225 429.09375 L -247.5 429.09375 L -247.5 451.59375 L -225 451.59375 L -225 474.09375 L -247.5 474.09375 L -247.5 496.59375 L -225 496.59375 L -225 519.09375 L -247.5 519.09375 L -247.5 541.59375 L -225 541.59375 L -225 564.09375 L -180 564.09375 L -180 541.59375 L -135 541.59375 L -135 564.09375 L -90 564.09375 L -90 541.59375 L -45 541.59375 L -45 564.09375 L 0 564.09375 L 0 541.59375 L 45 541.59375 L 45 564.09375 L 90 564.09375 L 90 541.59375 L 135 541.59375 L 135 564.09375 L 180 564.09375 L 180 541.59375 L 202.5 541.59375 L 202.5 519.09375 L 180 519.09375 L 180 496.59375 L 202.5 496.59375 L 202.5 474.09375 L 180 474.09375 L 180 451.59375 L 202.5 451.59375 L 202.5 429.09375 L 180 429.09375 L 180 406.59375 L 202.5 406.59375 L 202.5 384.09375 L 180 384.09375 L 180 361.59375 L 202.5 361.59375 L 202.5 339.09375 L 180 339.09375 L 180 316.59375 L 135 316.59375 L 135 339.09375 L 90 339.09375 L 90 316.59375 L 45 316.59375 L 45 339.09375 L 11.25 339.09375 L 0 339.09375 L -45 339.09375 L -56.25 339.09375 L -90 339.09375 L -90 316.59375 L -135 316.59375 L -135 339.09375 L -180 339.09375 L -180 316.59375 L -225 316.59375 z "
       transform="translate(0,308.2677)"
       id="rect5571-8" />
    <path
       style="fill:#ff0000;fill-opacity:1;fill-rule:nonzero;stroke:none"
       d="M 225 -110.90625 L 225 -88.40625 L 202.5 -88.40625 L 202.5 -43.40625 L 180 -43.40625 L 180 1.59375 L 202.5 1.59375 L 202.5 46.59375 L 180 46.59375 L 180 91.59375 L 135 91.59375 L 135 136.59375 L 180 136.59375 L 180 181.59375 L 202.5 181.59375 L 202.5 226.59375 L 180 226.59375 L 180 271.59375 L 202.5 271.59375 L 202.5 316.59375 L 225 316.59375 L 225 339.09375 L 270 339.09375 L 270 316.59375 L 315 316.59375 L 315 339.09375 L 360 339.09375 L 360 316.59375 L 405 316.59375 L 405 339.09375 L 450 339.09375 L 450 316.59375 L 495 316.59375 L 495 339.09375 L 540 339.09375 L 540 316.59375 L 585 316.59375 L 585 339.09375 L 630 339.09375 L 630 316.59375 L 675 316.59375 L 675 339.09375 L 720 339.09375 L 720 316.59375 L 742.5 316.59375 L 742.5 271.59375 L 765 271.59375 L 765 226.59375 L 742.5 226.59375 L 742.5 181.59375 L 765 181.59375 L 765 136.59375 L 810 136.59375 L 810 91.59375 L 765 91.59375 L 765 46.59375 L 742.5 46.59375 L 742.5 1.59375 L 765 1.59375 L 765 -43.40625 L 742.5 -43.40625 L 742.5 -88.40625 L 720 -88.40625 L 720 -110.90625 L 675 -110.90625 L 675 -88.40625 L 630 -88.40625 L 630 -110.90625 L 585 -110.90625 L 585 -88.40625 L 540 -88.40625 L 540 -110.90625 L 495 -110.90625 L 495 -88.40625 L 450 -88.40625 L 450 -110.90625 L 405 -110.90625 L 405 -88.40625 L 360 -88.40625 L 360 -110.90625 L 315 -110.90625 L 315 -88.40625 L 270 -88.40625 L 270 -110.90625 L 225 -110.90625 z "
       id="rect5937"
       transform="translate(0,308.2677)" />
    <path
       inkscape:connector-curvature="0"
       style="fill:#ff0000;fill-opacity:1;fill-rule:nonzero;stroke:none"
       d="m 225,849.86218 0,22.5 -22.5,0 0,45 -22.5,0 0,45 22.5,0 0,45.00002 -22.5,0 0,45 -45,0 0,45 45,0 0,45 22.5,0 0,45 -22.5,0 0,45 22.5,0 0,45 22.5,0 0,22.5 45,0 0,-22.5 45,0 0,22.5 45,0 0,-22.5 45,0 0,22.5 45,0 0,-22.5 45,0 0,22.5 45,0 0,-22.5 45,0 0,22.5 45,0 0,-22.5 45,0 0,22.5 45,0 0,-22.5 22.5,0 0,-45 22.5,0 0,-45 -22.5,0 0,-45 22.5,0 0,-45 45,0 0,-45 -45,0 0,-45 -22.5,0 0,-45.00002 22.5,0 0,-45 -22.5,0 0,-45 -22.5,0 0,-22.5 -45,0 0,22.5 -45,0 0,-22.5 -45,0 0,22.5 -45,0 0,-22.5 -45,0 0,22.5 -45,0 0,-22.5 -45,0 0,22.5 -45,0 0,-22.5 -45,0 0,22.5 -45,0 0,-22.5 -45,0 z"
       id="rect5937-7" />
    <rect
       style="fill:#ffff00;fill-opacity:1;fill-rule:nonzero;stroke:none"
       id="rect6941"
       width="78.75"
       height="67.5"
       x="866.25"
       y="742.98718" />
    <rect
       style="fill:#ffff00;fill-opacity:1;fill-rule:nonzero;stroke:none"
       id="rect6941-5"
       width="56.25"
       height="50.625"
       x="528.75"
       y="765.48718" />
  </g>
</svg>
